<?xml version="1.0" standalone="no"?><!DOCTYPE svg PUBLIC "-//W3C//DTD SVG 1.1//EN" "http://www.w3.org/Graphics/SVG/1.1/DTD/svg11.dtd"><svg t="1490432120398" class="icon" style="" viewBox="0 0 1024 1024" version="1.1" xmlns="http://www.w3.org/2000/svg" p-id="1430" xmlns:xlink="http://www.w3.org/1999/xlink" width="64" height="64"><defs><style type="text/css"></style></defs><path d="M996.763794 844.525714 877.906651 595.657143 921.883794 70.674286 891.43808 68.114286 873.152366 282.605714 844.992366 64 599.689509 43.794286 550.683794 632.96C548.911531 658.554168 536.097746 682.112845 515.575223 697.508571 494.631352 714.113883 468.003763 721.829646 441.426651 718.994286 427.691461 717.935353 414.300329 714.175894 402.020937 707.931429 390.086555 701.926965 379.165765 694.091144 369.655223 684.708571 361.192384 675.321602 354.612132 664.395899 350.272366 652.525714 345.779529 640.888477 343.967011 628.388347 344.969509 615.954286L393.975223 26.697143 73.243794 0 24.23808 589.165714C19.530843 641.9187 26.813401 695.053243 45.540937 744.594286 63.882165 793.7112 91.40426 838.888394 126.63808 877.714286 162.823036 917.336475 206.275485 949.646473 254.63808 972.891429 305.297097 997.526482 360.126526 1012.44331 416.283794 1016.868571 519.902842 1025.462857 612.459033 1002.971429 693.952366 949.394286L746.889509 996.571429 996.763794 844.525714 996.763794 844.525714ZM167.232366 105.691429 91.712366 393.142857 122.523794 62.811429 330.615223 77.897143 167.232366 105.691429 167.232366 105.691429ZM483.392366 768.822857C479.643794 769.371429 474.249509 770.56 466.935223 771.2 458.314299 772.174562 449.645342 772.662954 440.969509 772.662857 429.562235 772.962409 418.150705 772.258749 406.866651 770.56 400.55808 769.92 394.066651 768.365714 387.300937 766.994286 380.334265 765.122457 373.468114 762.894772 366.729509 760.32 351.676652 754.710965 337.721425 746.511109 325.495223 736.091429 311.886487 724.769221 300.799098 710.723119 292.946651 694.857143 280.982137 670.129698 276.259229 642.521293 279.323794 615.222857 280.146651 607.451429 280.969509 599.68 281.883794 592L288.009509 545.554286C290.020937 530.56 292.39808 516.114286 294.409509 502.308571 296.420937 488.502857 298.980937 475.611429 300.900937 463.725714 302.820937 451.84 305.19808 440.868571 307.11808 431.085714 309.03808 421.302857 310.95808 412.8 312.420937 406.034286 315.529509 392.137143 317.632366 384.274286 317.632366 384.274286 317.632366 384.274286 318.272366 392.411429 318.729509 406.674286 318.729509 413.805714 319.27808 422.4 319.27808 432.274286L319.27808 465.462857C319.27808 477.622857 319.27808 490.788571 318.455223 504.685714 317.632366 518.582857 317.632366 533.211429 316.71808 548.388571 315.803794 563.565714 314.889509 579.108571 313.975223 594.925714 313.335223 603.062857 312.695223 611.2 311.963794 619.428571 311.343903 626.271705 311.343903 633.156867 311.963794 640 313.355452 654.012859 316.96624 667.715335 322.660937 680.594286 328.379923 692.729867 336.212454 703.751135 345.792366 713.142857 355.23364 722.19335 365.841768 729.941896 377.335223 736.182857 388.197027 741.957361 399.547835 746.760803 411.255223 750.537143 416.832366 752.365714 422.135223 754.011429 427.346651 755.2 432.55808 756.388571 437.495223 757.942857 442.249509 758.857143 451.392366 761.051429 460.535223 762.331429 467.026651 763.702857L489.152366 768 483.392366 768.822857 483.392366 768.822857Z" p-id="1431" fill="#ffffff"></path></svg>